<svg id="Livello_1" data-name="Livello 1" xmlns="http://www.w3.org/2000/svg" viewBox="0 0 1920 736.05"><path id="footer-bg" d="M1919.24,710.23V250.89c-2.79-10.58-23.61-11.55-29.08-12-40.22-3.25-75.54,10.42-114.9,16.28-167.12,24.9-336.71-3.19-504.27-6.84-86-1.87-170.72,7-256.32,14-85.31,6.91-170.77,5.79-256.21,2-86.26-3.85-172.44-10-258.8-11.27q-9.5-.14-19-.14-5.9-10.29-11.8-20.59Q456.67,211,444.48,189.77l-1.88-3.28c.88-2,.6-4.79-1.39-8.82,7-1.22,7.43-8.71,6.73-14.49.51-6.62-3.82-13.88,0-19.76,7.41-7,3.54-20.08-5.12-24.88-5.44-9.81,29.54,5.69,25.27-12.57,1.52-6.06-4-9.32-6.53-13.73,1.58-5.44-4.38-8.59-8.48-9.08C450.1,71.88,441,75.52,437.8,71.6c5.73-10.74,16.69-9.9,13.7-16.59-1.73-18.31-20.61-8.18-29.88-16.08-9.37-3.27-13,12.74-17.78,1.65-3.85-8.27-24.77.37-21.34-2.87.64-5.6,8.79-13.37,2.19-18.53-4.86-6.31-16-5.16-22.54-7.21C364.21,1.39,349.2,6,344.83.5,338.69-1.6,333.69,3.36,330,7.22c-1.29,6.16-5.69,6.47-10.46,9.3-2.7,8.78-15,14.8-7.57,25,3.74,13.25-20,17.55.07,33.84.59,5.76-5.51,2.27-8.43,6-4.18,4.09-11.18,18.1.46,15.38-10.29,6.37-15.63,9-7.66,23.09-13.87,19.82-1.18,10.77,5.72,18.2-.17,3.41-7.13,2-9.84,4.49-5.46,4.82-11.66,21,2.82,15.11,4.52-1.79,7-2.35,2.84,2.19-7.22,5.58,4.6,20.19,11.87,21,13.66.06,31.12,3.19,38.82,17.44,10.47,14.33,14.69,47.46-1.78,58.76-33.26,1.55-66.52,3.09-99.84,3.8,2-1.68,2.45-3.94,2.84-6.58.18-1.27.36-2.54.55-3.81,4.4-3,3.64-9,1.91-13.6l.12-.45c.56-1.79,2.6-2.77,1.51-5-.72-1.45-2.38-2.07-3.81-2.53l-.38-.12a9.57,9.57,0,0,0,3.93-2.37l-1.7.71a11.79,11.79,0,0,0,2.36-2.72,2.51,2.51,0,0,1-1.51.87c1.18-1.79-.3-2.67-2-2.31a8.74,8.74,0,0,0,3.74-2,24,24,0,0,0-5.66,1.35,3.51,3.51,0,0,0,1.55-2.35c-1.91,2.52-5.94,3.79-8.57,5.44l-.11.07c.62-.54,1.24-1.08,1.81-1.64.35-.35,3.83-4.19,2.75-4.84.71-.95-1.58-.24-1.75-.18a24.15,24.15,0,0,0-2.29.89,17.56,17.56,0,0,0-4.19,3.13l-.85.72a11.54,11.54,0,0,0-.86-1.32,22.57,22.57,0,0,0-2.07-1.93c-.19-.2-2.46-2.14-2.2-.45.1.68-.22,1.29,0,2.19.13.6.25,1.11.4,1.63l-.66-.29c-3-1.28-6.56-3.2-9.86-3.57a8.74,8.74,0,0,0,3.74,2c-1.67-.36-3.16.53-2,2.32a2.52,2.52,0,0,1-1.51-.88,14.19,14.19,0,0,0,3.09,3.54,15.78,15.78,0,0,0-2.6-.21A21.56,21.56,0,0,0,220,227c-.27.05-3.18.73-1.66,1.52.61.32.91.93,1.76,1.31a23.08,23.08,0,0,0,2.23.86c-.89.86-1.69,2-1.28,3.26s1.9,1.48,2.12,2.81q1.44,8.8,2.87,17.62c.46,2.81.8,4.89,3.25,6.61-2.58,0-5.16,0-7.73,0a4.92,4.92,0,0,1-1-.75,5.29,5.29,0,0,0-2.07-1.78c-.45-.21-2.61-1.4-3-1.13a27.9,27.9,0,0,0,2.41-1.68,15.42,15.42,0,0,0,2.86-2l-1.69.71a12,12,0,0,0,2.35-2.73c-.47.21-.27-.17-.09-.56a3.83,3.83,0,0,1-1.18.94c.56-1.67-.73-2.14-2.21-1.82a8.74,8.74,0,0,0,3.74-2c-.84.1-1.67.25-2.49.43a20.89,20.89,0,0,1,1.32-1.81c-1.43,1-2.38,2-4,2.57.75-.64,1.49-1.3,2.21-2-1,.37-1.34.95-1.15-.2-1.08,1.43-3.21,2.22-4.72,3.16-1,.65-2.12,1.21-3.15,1.84-.88.55-2.55,2-3.47,2.05a9.76,9.76,0,0,1-1.8-.38,10.1,10.1,0,0,0-1.75-.2,13.25,13.25,0,0,0-3.33,0c-1.88.37-.82,1.67.09,2.48a7.85,7.85,0,0,0,1.35.73c1.35.8.75,1.07-.18,2.35-.12.17-.6.75-1.07,1.41-25.79-.68-51.48-2.43-77.26-5.3v-47.3a7.72,7.72,0,0,1,2.75.21c.8.43.65,2.67.56,3.73a13.36,13.36,0,0,1-.84,3.69c-.37,1-1.93,2.74-1.1,3.28q1.09-2.49,2.18-5a13,13,0,0,1-1,3.3c-.31.7-1.58,2.07-.89,2.48l2.33-4.48c-.12,1-.29,2-.36,3,0,0-.16,1.74.17,1.39l.84-8.4c.89,2.4.38,5.31.26,7.8l.75-6.67c0,1-1,6.84-.15,7.24q.32-3.33.74-6.65l-.15,7,.6-5.88c0,1-.51,5.81.23,6.58,0-1.9.14-3.79.26-5.68a45,45,0,0,1-.28,7.52,60.75,60.75,0,0,0,1-6.72,15.44,15.44,0,0,1-.09,6.56,17.54,17.54,0,0,0,.74-4.19c0,.81-.15,2.29.79,2.4a31.09,31.09,0,0,0-.91-7c.18.64,1.57,6.42,2.06,6.28-.33-1.94-.67-3.88-1-5.82.37,1.62.73,3.24,1.09,4.86a22.12,22.12,0,0,0,.14-4.67c.79,1.87,1.65,4,1.09,6.05a11.61,11.61,0,0,0,.37-4.69c.17.46.84,3.56,1.39,3.12a16.24,16.24,0,0,1-.94-5.17c.26.84,1.08,4.88,2,4.47a3.44,3.44,0,0,1-.86-2,2.48,2.48,0,0,0,1.52,1.28l-1.78-4.36a12.48,12.48,0,0,1,1.35,2.17c.36.74.21,1.72,1.19,1.43a4.29,4.29,0,0,0-1-1.81c.54.42,2.35,2.28,2.94,1.87a14,14,0,0,1-2.28-3,15.17,15.17,0,0,1,2.44,2.62c1.05-.34-.75-2-1-2.64.81.64,2.52,2.63,3.21,1.74-2.69.13-5-7.68-5.8-10,.33.35,1.59-.6,1.64-.82s-.85-2.43-.91-2.95c-.29-2.9-.46-5.79-.89-8.68a30.64,30.64,0,0,0-1.7-7.64c-1.08-2.53-3-4.13-4.59-6.21a2.83,2.83,0,0,0,1-.55c.56-.62.19-1.28,0-2.2a40.66,40.66,0,0,1-.55-5,37.85,37.85,0,0,1,1.25-9.65c.36-1.57.75-3.14,1.08-4.72a5,5,0,0,1,1.93-3.36c3.84-.38,7.67-.84,11.51-1.22,3.37-.33,6.67-1.37,10-1.93a12.75,12.75,0,0,0,4.81-1.69c1.51-.91,2.27-.71,4-.39,1.11.2,1.73.44,2.14.11a7.65,7.65,0,0,1,2.42,1c.55.35,1.87,1.93,2.24,1.64l-2.3-2.05c.52.25,2.62,2.17,2.8,2l-2-2c.33.15,2.36.88,2.36.88l-4.39-1.93c1.44-.06,2.94.73,4.26,1.23l-3.47-1.58c.4.15,3.54,1.7,3.88,1.35-1.16-.5-2.31-1-3.46-1.56l3.76,1.31-3.07-1.36c.62.19,3,1.33,3.59,1-1-.36-2-.74-3-1.14a26.17,26.17,0,0,1,4,1.48,34.72,34.72,0,0,0-3.46-1.71,8.83,8.83,0,0,1,3.52,1.2,9.87,9.87,0,0,0-2.13-1.13c.42.14,1.22.47,1.43,0a17.45,17.45,0,0,0-3.94-.73c.27,0,3.75.27,3.76,0l-3.32-.49,2.82.27a12.67,12.67,0,0,0-2.5-.9,5.49,5.49,0,0,1,3.46.48,6.73,6.73,0,0,0-2.47-1c.13,0,2.1.23,1.93-.2a9.28,9.28,0,0,1-3-.4c.48,0,2.83.35,2.77-.29a6.51,6.51,0,0,0-3-.29c.6-.22,2.38-.2,2.39-.74-.91,0,.5-.68.38-1.07a7.84,7.84,0,0,1-2,.72,8.34,8.34,0,0,1,1.84-.86c0-.63-1.29.06-1.6.08.44-.29,1.88-.87,1.5-1.43-.33,1.23-3.73,1.27-4.73,1.33s-1.44,0-1.62.25a19.62,19.62,0,0,1-4.78,0c-1.41-.26-2.38-1.11-3.91-1.2-1.9-.11-3.85,0-5.76.08-4.28.08-8.57.19-12.86.3-3.88.1-8.13-.24-11.85,1a5.7,5.7,0,0,1,.95-2.27,42.94,42.94,0,0,0-6.11-.8A3.52,3.52,0,0,1,124,137c.72-.78,1.48-1.4,2.18-2.1,0,0,0,.06.05.07a.62.62,0,0,0,0-.13l.2-.21a1.81,1.81,0,0,0,.09.7c.08-.34.14-.68.19-1s.34-.41.5-.63c.21.66.45,1.44.44,1.45a8.87,8.87,0,0,0-.34-1.61c.1-.15.19-.3.28-.46l.09-.18c.09.22.17.44.24.67l0,.07a8.19,8.19,0,0,1,.26,1.17c0-.23-.06-.46-.1-.69a2.29,2.29,0,0,0,.5,1,11,11,0,0,0-.58-2.94.42.42,0,0,1,0-.1,9.33,9.33,0,0,1,.9,3.26,8.89,8.89,0,0,0-.13-1.54,5,5,0,0,0,.63,2,10.4,10.4,0,0,0-.52-3.27,7,7,0,0,1,.48,4.27,7.49,7.49,0,0,0,.15-3.76,4.74,4.74,0,0,1,.33,3.79,4.86,4.86,0,0,0,.41-2.29c.06.51,0,1.32.53,1.55a6.74,6.74,0,0,0-.27-2,10.07,10.07,0,0,0,1,1.88,10.53,10.53,0,0,0-1.21-3.83,10.66,10.66,0,0,1,1.28,3.26,6.38,6.38,0,0,0-.35-3c.75,1.07,1.65,2.84,1,4.17a4.37,4.37,0,0,0,.19-2.94c.16.34.62,2.63.95,2.56-.24-1.3-.56-2.57-.9-3.85.32.62.94,3.68,1.59,3.81a6.06,6.06,0,0,1-.53-1.76,5.42,5.42,0,0,0,1,1.52,13.61,13.61,0,0,0-1.49-3.79c.65.8,1.27,3.29,2,3.61a4.45,4.45,0,0,0-.64-1.76c.35.47,1.37,2.82,1.86,2.88a30.35,30.35,0,0,0-1.47-3.42,9.4,9.4,0,0,1,1.13,2c.06.12.54,1.77.8,1.19-.31-.83-.62-1.67-.9-2.51.39.61,1.6,3.5,2,3.34-1-1.19-1.4-3.46-2.13-4.88a20.5,20.5,0,0,0-3-4.45l-.15-.14c2.3-.68,4.42-1.91,5-4.3.29-1.23.06-1.21-.91-1.71s-2-.8-2.92-1.19a27,27,0,0,1-2.61-1.07,6.14,6.14,0,0,1-2.4-2.59,9.07,9.07,0,0,0-8.89-4,9.25,9.25,0,0,0-4.6,2.16c-1.22,1.08-2,3-3.46,3.68-1.86.87-3.45-.32-5.13,1.32-.53.52-3.33,3.07-2.76,3.45a38.82,38.82,0,0,0,6.37,3.56,15.78,15.78,0,0,0-3.92,9.66c.56-.16,1.19-4.46,1.54-5.28a16.6,16.6,0,0,1,2.71-4.25l.32.12a32.66,32.66,0,0,0-2,3.61c-.47,1-2.07,3.83-1.62,4.91,1.2-2.68,1.8-5.29,3.62-7.7-.33.67-4,8.34-3.27,8.26a16.87,16.87,0,0,1,.73-2.42,27.29,27.29,0,0,0-.72,4.58c.38-.17.6-1.19.78-2.23l-.06.54a54.67,54.67,0,0,1,2.07-5.24,8.37,8.37,0,0,0-1,5.33,15.23,15.23,0,0,1,1.1-2.69c-.12.36-.24.72-.33,1.08s-.73,1.86.19,1.66c0,0,.49-1.55.8-2.51a5,5,0,0,0-.15,2.07,13.14,13.14,0,0,1,1.63-4,13,13,0,0,0-1.13,4c.27-.42.48-.87.55-.19a18.55,18.55,0,0,1,1.32-3.08,10.53,10.53,0,0,0-1.07,3.4,12.17,12.17,0,0,1,1.38-3.21,6.88,6.88,0,0,0-.94,2.91,12.26,12.26,0,0,1,1.9-3.83,7.87,7.87,0,0,0-1.48,3.64,12.2,12.2,0,0,1,1.37-2.44,11.65,11.65,0,0,0-1.28,3s1.29-2.21,2-3.45a.35.35,0,0,0,0,.08c-.57,1.19-1.44,3.18-1.15,3.1.08-.25.17-.48.26-.72-.17.57-.26,1.11-.09,1.34a20.57,20.57,0,0,1,1.18-2.72,2.91,2.91,0,0,0,.15,2.33,6.15,6.15,0,0,1,.41-2.28,7.66,7.66,0,0,0,1.36,1.21,4.24,4.24,0,0,1,2.15,3.29,27.64,27.64,0,0,0-4.73.82c.27.53.53,1.06.8,1.58-6.84.06-13.47.19-20.27-.67a55.24,55.24,0,0,0-9.79-.45c-3,.16-5.63,1.17-8.51,1.53-1.25.16-2.45-.68-3.43.21l-.06.07a56.33,56.33,0,0,0-7.56-.48c-.12.44,2.43.31,2.92.34,1.31.09,2.63.23,3.93.43a18.22,18.22,0,0,1-3.46.2c-.75,0-2.49-.59-3.15-.25a2.77,2.77,0,0,0,.61.24c-.63,0-1.08,0-1.12.1l1.49.29a18.16,18.16,0,0,1-2.94-.27c-.08.62,2.08.62,2.66.7l-2-.1a22.6,22.6,0,0,0,3.67.69c-.35,0-5.07-.31-4,.47.57.09,1.16.15,1.74.23-1,0-1.77,0-1.94.42l2.4.35a6.51,6.51,0,0,0-2.2.19l3.1.41a7.14,7.14,0,0,0-3.13.5,25.79,25.79,0,0,0,3.61.44c-1.3-.11-2.61-.17-3.91-.18l2.66.43a10.65,10.65,0,0,0-2.46-.07l3.29.46a15.08,15.08,0,0,0-3.15-.11l2.14.51-2.61-.35c-.26.33,3.45.71,3.85.76-.2,0-3.72-.25-3.62,0l.42,0a1.76,1.76,0,0,0-1,.22c-.06.06,2.28.31,2.58.33a3.75,3.75,0,0,0-2.07.86,27.83,27.83,0,0,1,8-.31c.27.53.83.46,1.85.32,6.15-.83,12.06.8,18.19,1.5,2.91.33,6.07.32,8.91,1.1,2.23.61,4.43,3.22,5.31,5.33,1.16,2.78.25,6,.87,9s.2,4.87-.61,7.79c-.09.34-.63,2-.4,2.31a10,10,0,0,0,2.2.43l.51.14c-.55,2.44-1.61,4.68-2.37,7.06a45.44,45.44,0,0,0-1.68,8c-.37,2.71-.62,5.45-1,8.16-.19,1.32-.64,2.72-.7,4,0,.35-.25,1.11.1,1.4s1.16.33,1-.3a.74.74,0,0,0,1.34.32c-.31,3.9-1,7.84-.77,11.76.71.19.43-3.29.47-4,.12-2,.34-3.92.64-5.86a26.33,26.33,0,0,1,.26,5.32c0,1.07-.83,3.24-.33,4.18a4.58,4.58,0,0,0,.29-.71c0,.8,0,1.37.19,1.43l.42-2.13a24.91,24.91,0,0,1-.39,4.22c.8.11.89-3,1-3.82l-.15,2.93c.23.26,1-4.93,1-5.28,0,.74-.65,5.63,0,5.71a8.42,8.42,0,0,0,.24-1c0,.61.16,1.05.42.94.12-.83.22-1.67.32-2.51-.06,1.37.06,2.54.61,2.79l.51-3.45a9.67,9.67,0,0,0,.26,3.17l.6-4.46c0,1.53,0,3.07,0,4.6a3.25,3.25,0,0,0,.49-1.48,3.18,3.18,0,0,0,.17,1.37,34.58,34.58,0,0,0,.64-5.18c-.16,1.87-.25,3.75-.26,5.62.2-1.27.41-2.55.61-3.82a16,16,0,0,0-.09,3.53l.66-4.73a21.48,21.48,0,0,0-.16,4.53c.24-1,.49-2.05.73-3.08-.17,1.25-.33,2.51-.5,3.76.54.42,1-5,1.09-5.54,0,.32-.3,5.32.06,5.21a21.53,21.53,0,0,0,.16-3.59c0,.66.44,4.39.41,4.43.09-1.24.18-2.48.28-3.73a5.21,5.21,0,0,0,1.23,3,31.52,31.52,0,0,1-.63-7.87,20.4,20.4,0,0,1,.23-4.21c.37-1.49.45-.82,1.73-1.21a2.21,2.21,0,0,0,1.18-.84v48.76c-39.54-4.46-79.13-10-119-10V717.83c0,4.63-2,15.24,1.5,17.26,3.71,2.16,15.31,0,19.48,0H1777c37.45,0,71-.51,108.44-.51H1913c5.76,0,5,1.2,6.23-3.22C1921,725.42,1919.24,716.37,1919.24,710.23ZM311.09,168.74l-.9.45C309.77,168.74,311.43,167.42,311.09,168.74Zm6-40.75.33,0C317.3,128,317,128.26,317.13,128Zm4.27,3a2.8,2.8,0,0,0-.32.2C321.07,130.93,321.22,130.84,321.4,130.94Zm-.28,27.94c0-.09-.05-.16.07-.15Zm-.06-26.74a3.74,3.74,0,0,1,.87-.6C322,132,321.68,132.37,321.06,132.14ZM347,35.49l.66.41A5.6,5.6,0,0,1,347,35.49Zm4.15,49.09a.66.66,0,0,1,.28-.27C351.35,84.43,351.26,84.59,351.11,84.58Zm.82-1.64c-.12.16-.09.09,0,0Zm.49,1.26c-.85.57-.34-.83-.28-1.38C352.32,82.79,352.51,83,352.42,84.2Zm.6-41.71a2.22,2.22,0,0,1,.11.39C352.85,42.87,353,42.69,353,42.49Zm-101.57,201c.18-1.22.27-2.55.41-3.86a4.82,4.82,0,0,1,.49,1.2,7.06,7.06,0,0,1-1.36,5.85Zm-122.72-110a9.4,9.4,0,0,0-.4-1.47A5.65,5.65,0,0,1,128.73,133.5Zm-20.24,1.85a6.22,6.22,0,0,1,.2-.93C108.61,134.72,108.55,135,108.49,135.35Zm2.68-.93c.07-.23.13-.39.15-.45C111.26,134.12,111.22,134.27,111.17,134.42ZM70.25,143c.3,0,.6,0,.86,0A4.65,4.65,0,0,1,70.25,143Zm36.65,69.15c0-.52,0-1,0-1.46A6.91,6.91,0,0,1,106.9,212.16Zm97.22,48.69.54-.1c1.47-.34,3-1.08,4.28-.91a15,15,0,0,1,1.66.43c1,.22,2,.54,3,.73C210.41,261,207.27,260.92,204.12,260.85ZM361,72.42c-.05,0,.07-.1.06-.06ZM468.12,238.7c.45,1.2.18,1-.84,2.15L464,244.36l-5.26-9.18,4.53-4.89C464.84,233,467,235.8,468.12,238.7Zm-9.9-17.26c.79,1.37,2.43,3.26,2.76,4.81.23,1.07-.19,1.11-1.11,2.11l-3.09,3.34-4.89-8.52,4.51-4.92C457,219.32,457.62,220.38,458.22,221.44ZM449.94,207l1.87,3.26c.59,1,2.3,3,2.4,4.19.13,1.48-3.2,4-4.36,5.19L448,216.42c-.6-1-2.34-3.06-2.44-4.25C445.46,210.79,448.88,208.13,449.94,207Zm-6.77-11.82,1.88,3.28c.73,1.27,2.38,3.16,2.63,4.6s-3.06,4.07-4.26,5.36q-2.39-4.18-4.78-8.35Zm-3.37-5.95c.65,1,1.39,2,1,2.87-.68,1.58-3,3.22-4.15,4.5l-3.34-5.83A18.37,18.37,0,0,0,439.8,189.22ZM430.94,96.5c-.31.06-.38-.32-.51-.53C430.8,95.81,431.16,96.08,430.94,96.5ZM420.09,56.82c0-.1.13,0,0,0Zm-3.38,125.5a2.83,2.83,0,0,1-.53-.73C416.79,181.48,417.24,181.76,416.71,182.32Zm-11.93-46.41c0,.28-.36.28-.56.3C403.44,135.81,404.15,135.94,404.78,135.91Zm-11.9,12.28.13.19c-.26-.22.06-.36.18-.58.41-.05.15.36-.18.58S392.88,148.34,392.88,148.19Zm-2.33,43c-.16-.1-.31-.19-.43-.28S390.53,191.19,390.55,191.2Zm-2.24-38.71-.15-.31C388.41,152.14,388.55,152.35,388.31,152.49Zm-9.87,28.4c-.06.09-.24.06-.34.08S378.42,180.91,378.44,180.89ZM365,76.31a4.65,4.65,0,0,0,.73.08C366.49,77.18,365.22,76.85,365,76.31Zm2.49,38.26c.11.64-.3.29-.67.27C366.73,114.43,367.5,113.45,367.44,114.57Zm-.22,55.56c-.77-.26.06-.89.11-.78C368.1,169.54,368.12,170.13,367.22,170.13Zm6.92-3.42c-.13.44-.43.41-.73.31C373.77,166.8,374.23,165.83,374.14,166.71Zm.72-107.4c.15-.06.22.06.22.24C375,59.46,374.75,59.37,374.86,59.31ZM381,255.42c-6.58-14.31-7.84-33.34-1.76-46.93,3.43,2.28,11.07,6.44,14.75-.61,9.38.78,15.36-5.46,15.42-14.79,2.18-3.07,11.37-2,19.6-2.14l13.16,23L464.55,253C436.67,253.23,408.83,254.21,381,255.42Zm93.66-2.51h-5.72L466,247.84l4.53-4.9,1.92,3.35c.82,1.43,2.38,3.28,2.8,4.88C475.53,252.19,475.42,252.14,474.66,252.91Z"/></svg>