<svg id="Livello_1" data-name="Livello 1" xmlns="http://www.w3.org/2000/svg" viewBox="0 0 226 49.18"><path d="M51.3,18.8A24.92,24.92,0,0,0,41.81,3.08a21.73,21.73,0,0,0-4.93-3h-.31l-.63.48.67.37.34.2A23.56,23.56,0,0,1,49.24,25.7a22.93,22.93,0,0,1-8.91,14.94,23,23,0,0,1-13.78,4.91c0-3.34,0-6.67,0-10a1,1,0,0,1,.32-.78l6.4-6.37a1,1,0,0,0,.31-.78c0-1.38,0-2.75,0-4.13a.8.8,0,0,1,.26-.63c.88-.86,1.74-1.73,2.61-2.6.1-.1.24-.18.25-.23l-3.75-3.75L29.22,20c.09.1.2.22.32.33.83.84,1.66,1.68,2.51,2.5a.92.92,0,0,1,.3.71q0,1.82,0,3.63a1,1,0,0,1-.31.75c-1.72,1.69-3.42,3.4-5.12,5.1-.1.1-.17.25-.36.27,0-.08,0-.16,0-.23q0-8.91,0-17.81a.77.77,0,0,1,.3-.61L32,9.46c.11-.12.26-.21.3-.31L26.14,3,20,9.15l.3.32L25,14.19a.86.86,0,0,1,.28.67q0,6.21,0,12.43c0,.11.06.23-.06.32a.2.2,0,0,1-.08,0q-2.73-2.73-5.47-5.45a.67.67,0,0,1-.18-.53c0-1.24,0-2.48,0-3.72a.88.88,0,0,1,.29-.67c.86-.83,1.7-1.68,2.54-2.53.11-.11.27-.2.28-.27l-3.73-3.72-3.71,3.71c.92.92,1.88,1.89,2.86,2.84a.8.8,0,0,1,.26.62c0,1.37,0,2.73,0,4.09a1.12,1.12,0,0,0,.39.89c2.12,2.11,4.23,4.23,6.36,6.34a.91.91,0,0,1,.29.7q0,6.51,0,13c0,.12.06.26-.06.37a.35.35,0,0,1-.12-.07L19.7,37.77a.67.67,0,0,1-.18-.53c0-1.24,0-2.48,0-3.72a.86.86,0,0,1,.3-.67l2.54-2.53c.11-.12.27-.2.2-.3l-3.71-3.7L15.13,30c1,1,1.91,1.92,2.87,2.86a.89.89,0,0,1,.3.7c0,1.39,0,2.78,0,4.17a.78.78,0,0,0,.25.63l7.19,7.18a25.83,25.83,0,0,1-4-.37A23,23,0,0,1,8,37.39,22.72,22.72,0,0,1,2.45,18.88,22.19,22.19,0,0,1,8.51,6.05,26.46,26.46,0,0,1,10.89,3.8,26.44,26.44,0,0,1,15.24.93l.5-.28L15,.09l-.32.13-.31.13a27.18,27.18,0,0,0-7,5.06,23.69,23.69,0,0,0-4.92,7.07A25.37,25.37,0,0,0,.58,28.76,24.7,24.7,0,0,0,8.14,42.14a25.55,25.55,0,0,0,17.67,7A30,30,0,0,0,29.32,49a24.22,24.22,0,0,0,13.19-5.8C50,36.7,52.91,28.5,51.3,18.8Z" style="fill:#fff"/><path d="M66.81,14.16,59,34.81h4.4L65,30.18H72.2l1.63,4.63h4.42L70.43,14.16ZM71,26.64H66.26l2.35-6.74Z" style="fill:#fff"/><path d="M87.43,18.94a3.7,3.7,0,0,1,3.23-1.51,3.46,3.46,0,0,1,3.8,3.28l.05.31h4.13l0-.42a7.53,7.53,0,0,0-2.48-5,8.35,8.35,0,0,0-5.52-1.73,7.87,7.87,0,0,0-6.31,2.67A10.88,10.88,0,0,0,82,23.84v1.57a11.66,11.66,0,0,0,1.12,5.09,8,8,0,0,0,3.12,3.4,9,9,0,0,0,4.62,1.19,12.79,12.79,0,0,0,4.48-.75,7,7,0,0,0,3.16-2.26l.07-.1V23.85H90.31v3.38h4.1v3.36a4.86,4.86,0,0,1-3.4,1,4.09,4.09,0,0,1-3.48-1.63,7.77,7.77,0,0,1-1.28-4.78V23.64A8.16,8.16,0,0,1,87.43,18.94Z" style="fill:#fff"/><path d="M118.86,24.12a6,6,0,0,0,1-3.56,5.87,5.87,0,0,0-2-4.77,8.59,8.59,0,0,0-5.56-1.63H105V34.81h4.2V27.16h3.26l4,7.65h4.3v-.55l-4.32-8.11A6.44,6.44,0,0,0,118.86,24.12Zm-3.17-3.42a2.7,2.7,0,0,1-.86,2.13,3.6,3.6,0,0,1-2.49.79h-3.18V17.7h3.27a3.55,3.55,0,0,1,2.46.8A2.86,2.86,0,0,1,115.69,20.7Z" style="fill:#fff"/><rect x="125.93" y="14.16" width="4.19" height="20.65" style="fill:#fff"/><polygon points="147.53 28.73 142.05 14.16 136.93 14.16 136.93 34.81 141.13 34.81 141.13 27.86 140.87 21.38 146.01 34.81 149 34.81 154.16 21.36 153.91 27.88 153.91 34.81 158.1 34.81 158.1 14.16 153 14.16 147.53 28.73" style="fill:#fff"/><path d="M177.25,15.11a8.88,8.88,0,0,0-9,0,8.07,8.07,0,0,0-3,3.57,12.51,12.51,0,0,0-1.07,5.3v1.12a12.23,12.23,0,0,0,1.08,5.2,8.22,8.22,0,0,0,3.07,3.53,8.84,8.84,0,0,0,9,0,8.09,8.09,0,0,0,3-3.55,12.74,12.74,0,0,0,1-5.29V23.9a12.53,12.53,0,0,0-1.07-5.26A8.07,8.07,0,0,0,177.25,15.11Zm-4.48,16.38a3.71,3.71,0,0,1-3.24-1.63A8.33,8.33,0,0,1,168.32,25V23.86a8.25,8.25,0,0,1,1.22-4.75,4,4,0,0,1,6.44,0A8.36,8.36,0,0,1,177.16,24v1A8.53,8.53,0,0,1,176,29.9,3.7,3.7,0,0,1,172.77,31.49Z" style="fill:#fff"/><path d="M201.27,24.12a6,6,0,0,0,1-3.56,5.87,5.87,0,0,0-2-4.77,8.55,8.55,0,0,0-5.56-1.63h-7.37V34.81h4.21V27.16h3.25l4,7.65h4.31v-.55l-4.32-8.11A6.34,6.34,0,0,0,201.27,24.12ZM198.1,20.7a2.67,2.67,0,0,1-.86,2.13,3.57,3.57,0,0,1-2.48.79h-3.18V17.7h3.27a3.57,3.57,0,0,1,2.46.8A2.89,2.89,0,0,1,198.1,20.7Z" style="fill:#fff"/><polygon points="212.35 31.3 212.35 25.93 220.52 25.93 220.52 22.45 212.35 22.45 212.35 17.7 221.81 17.7 221.81 14.16 208.14 14.16 208.14 34.81 221.9 34.81 221.9 31.3 212.35 31.3" style="fill:#fff"/></svg>