<svg id="Livello_1" data-name="Livello 1" xmlns="http://www.w3.org/2000/svg" viewBox="0 0 226 49.18"><path d="M15.06.6a27.57,27.57,0,0,0-4.41,2.91A28.86,28.86,0,0,0,8.24,5.79,22.48,22.48,0,0,0,2.08,18.84,23.05,23.05,0,0,0,7.75,37.63a23.39,23.39,0,0,0,14,7.92,23.4,23.4,0,0,0,18.86-4.62,23.23,23.23,0,0,0,9-15.17A23.84,23.84,0,0,0,37.13.8L36.62.51l.11-.08a21.12,21.12,0,0,1,4.85,2.95,24.48,24.48,0,0,1,9.35,15.48c1.59,9.57-1.33,17.65-8.67,24a23.68,23.68,0,0,1-13,5.71A25.17,25.17,0,0,1,8.4,41.86,24.15,24.15,0,0,1,1,28.68a24.86,24.86,0,0,1,1.85-16,23.22,23.22,0,0,1,4.84-7,26.79,26.79,0,0,1,6.9-5c.14-.07.28-.11.41-.17Z" style="fill:#06559d;stroke:#06559d;stroke-miterlimit:10;stroke-width:0.75px"/><path d="M15.13,30l3.71-3.69L22.55,30c.07.1-.09.18-.2.3l-2.54,2.53a.85.85,0,0,0-.3.67c0,1.24,0,2.48,0,3.72a.67.67,0,0,0,.18.53l5.43,5.42a.35.35,0,0,0,.12.07c.12-.11.06-.25.06-.37q0-6.51,0-13a.91.91,0,0,0-.29-.7c-2.13-2.11-4.24-4.23-6.36-6.34a1.12,1.12,0,0,1-.39-.89c0-1.36,0-2.72,0-4.09a.8.8,0,0,0-.26-.62c-1-.95-1.94-1.92-2.86-2.84l3.71-3.71,3.73,3.72c0,.07-.17.16-.28.27-.84.85-1.68,1.7-2.54,2.53a.88.88,0,0,0-.29.67c0,1.24,0,2.48,0,3.72a.67.67,0,0,0,.18.53q2.75,2.72,5.47,5.45a.2.2,0,0,0,.08,0c.12-.09.06-.21.06-.32q0-6.21,0-12.43a.86.86,0,0,0-.28-.67L20.3,9.47,20,9.15,26.14,3l6.14,6.13c0,.1-.19.19-.3.31L26.84,14.6a.77.77,0,0,0-.3.61q0,8.91,0,17.81c0,.07,0,.15,0,.23.19,0,.26-.17.36-.27,1.7-1.7,3.4-3.41,5.12-5.1a1,1,0,0,0,.31-.75q0-1.81,0-3.63a.92.92,0,0,0-.3-.71c-.85-.82-1.68-1.66-2.51-2.5-.12-.11-.23-.23-.32-.33l3.71-3.69L36.68,20c0,.05-.15.13-.25.23-.87.87-1.73,1.74-2.61,2.6a.8.8,0,0,0-.26.63c0,1.38,0,2.75,0,4.13a1,1,0,0,1-.31.78l-6.4,6.37a1,1,0,0,0-.32.78c0,3.4,0,6.79,0,10.19v.48c-.21,0-.27-.11-.35-.2-2.56-2.54-5.1-5.09-7.66-7.64a.78.78,0,0,1-.25-.63c0-1.39,0-2.78,0-4.17a.89.89,0,0,0-.3-.7C17,31.93,16.1,31,15.13,30Z" style="fill:#fcc328"/><text transform="translate(59.31 34.44)" style="font-size:27.992149353027344px;fill:#06559d;stroke:#06559d;stroke-miterlimit:10;stroke-width:0.75px;font-family:Roboto-Medium, Roboto;font-weight:500;letter-spacing:0.10773982028281921em">A<tspan x="21.65" y="0" style="letter-spacing:0.11800532408536743em">GRIMORE</tspan></text></svg>